<svg xmlns="http://www.w3.org/2000/svg" width="122.433" height="52.079" viewBox="0 0 122.433 52.079"><defs><style>.a{fill:#ef7d18;}.b{fill:#fff;}</style></defs><path class="a" d="M24.186,14.535c1.844-3.393,1.432,7.552,1.432,7.552s-5.178,5.747-11.985,5.747C5.885,27.834,0,21.871,0,13.927S5.885,0,13.652,0a13.516,13.516,0,0,1,9.965,4.237L20.5,7.258A9.26,9.26,0,0,0,13.652,4.3c-5.3,0-8.964,4.413-8.964,9.612s3.648,9.612,8.964,9.612C20.518,23.539,23.362,16.065,24.186,14.535Z"/><path class="a" d="M138.958,53.872a9.731,9.731,0,1,1-9.729-9.572A9.583,9.583,0,0,1,138.958,53.872Zm-4.688,0a5.046,5.046,0,1,0-10.082,0,5.046,5.046,0,1,0,10.082,0Z" transform="translate(-96.06 -35.61)"/><path class="a" d="M236.7,44.788l-1.608,4.158a5.556,5.556,0,0,0-2.2-.432,4.833,4.833,0,0,0-4.08,2.472V62.913H224.2V44.671h4.374v2.648a5.922,5.922,0,0,1,4.963-3.119A10.714,10.714,0,0,1,236.7,44.788Z" transform="translate(-180.222 -35.53)"/><path class="a" d="M298.359,53.872a9.731,9.731,0,1,1-9.729-9.572A9.583,9.583,0,0,1,298.359,53.872Zm-4.688,0a5.046,5.046,0,1,0-10.082,0,5.046,5.046,0,1,0,10.082,0Z" transform="translate(-224.193 -35.61)"/><path class="a" d="M400.138,51.1V62.913h-4.61V52.262a3.36,3.36,0,0,0-3.609-3.727,4.467,4.467,0,0,0-3.609,2.354V62.913l-4.61,1.648V44.671H388v2.648a6.314,6.314,0,0,1,5.453-3.119A6.557,6.557,0,0,1,400.138,51.1Z" transform="translate(-308.436 -35.53)"/><path class="a" d="M491.75,51.107V62.994h-4.276V60.679a7.381,7.381,0,0,1-6,2.766c-3.433,0-6.571-2.236-6.571-6.12,0-3.492,3.2-6.042,7.16-6.042a8.891,8.891,0,0,1,5.08,1.314v-1.04c0-2.373-2.315-3.158-3.923-3.158a14.706,14.706,0,0,0-5.453,1.353l-1.491-3.805a18.584,18.584,0,0,1,7.2-1.648C488.67,44.3,491.75,46.948,491.75,51.107Zm-4.61,6.375V55.6a9.2,9.2,0,0,0-4.158-.922c-1.432,0-3.393.608-3.393,2.57,0,1.922,1.883,2.354,3.315,2.354A5.431,5.431,0,0,0,487.14,57.482Z" transform="translate(-381.746 -35.61)"/><path class="a" d="M582.451,221.554a2.677,2.677,0,0,0-3.786,3.786l3.786,3.786,3.786-3.786a2.671,2.671,0,0,0-.1-3.786A2.641,2.641,0,0,0,582.451,221.554Z" transform="translate(-464.543 -177.479)"/><g transform="translate(23.578 22.107)"><path class="b" d="M136.3,126h4.61v26.912H136.3V141.339H124.81v11.573H120.2V126h4.61v10.965H136.3Z" transform="translate(-120.2 -123.391)"/><path class="b" d="M252.5,177.413c0,.353,0,1.04-.039,1.726H238.868a5.222,5.222,0,0,0,5.12,3.688,7.334,7.334,0,0,0,5-1.844l2.315,3.452a11.539,11.539,0,0,1-7.3,2.609,9.589,9.589,0,0,1-9.808-9.572c0-5.335,3.884-9.572,9.141-9.572A9.157,9.157,0,0,1,252.5,177.413Zm-4.61-1.628c-.078-1.569-1.53-3.688-4.57-3.688a4.175,4.175,0,0,0-4.453,3.688Z" transform="translate(-211.838 -157.072)"/><path class="b" d="M444.521,177.413c0,.353,0,1.04-.039,1.726H430.868a5.222,5.222,0,0,0,5.12,3.688,7.334,7.334,0,0,0,5-1.844l2.315,3.452a11.539,11.539,0,0,1-7.3,2.609,9.589,9.589,0,0,1-9.808-9.572c0-5.335,3.884-9.572,9.16-9.572A9.157,9.157,0,0,1,444.521,177.413Zm-4.61-1.628c-.078-1.569-1.53-3.688-4.57-3.688a4.175,4.175,0,0,0-4.453,3.688Z" transform="translate(-366.177 -157.072)"/><path class="b" d="M377.872,124.018V124h-4.453v-4.237c0-2.275,1.491-2.766,2.393-2.766a3.13,3.13,0,0,1,1.844.549l1.726-3.884a8.043,8.043,0,0,0-4.041-.961c-2.962,0-6.532,1.765-6.532,6.846V124H365.2v4.158h3.609v14.064h4.61V128.157h1.746A9.2,9.2,0,0,1,377.872,124.018Z" transform="translate(-317.142 -112.7)"/><path class="b" d="M537.6,168.569l-1.608,4.158a5.217,5.217,0,0,0-2.2-.412,4.833,4.833,0,0,0-4.08,2.452v11.926H525.1V168.471h4.374v2.648A5.922,5.922,0,0,1,534.437,168,9.17,9.17,0,0,1,537.6,168.569Z" transform="translate(-445.677 -157.153)"/><g transform="translate(42.211 0.45)"><path class="b" d="M335.8,138.5v24.46h4.61V143.09h0a4.6,4.6,0,0,1-4.61-4.59Z" transform="translate(-335.72 -133.889)"/><path class="b" d="M359.3,115Z" transform="translate(-354.611 -114.999)"/><path class="b" d="M340.083,114.995a4.6,4.6,0,0,0-.177,9.2h.2v-9.2Z" transform="translate(-335.394 -114.994)"/></g></g></svg>